<?xml version="1.0" standalone="no"?>
<!DOCTYPE svg PUBLIC "-//W3C//DTD SVG 20010904//EN"
 "http://www.w3.org/TR/2001/REC-SVG-20010904/DTD/svg10.dtd">
<svg version="1.0" xmlns="http://www.w3.org/2000/svg"
 width="529.000000pt" height="529.000000pt" viewBox="0 0 529.000000 529.000000"
 preserveAspectRatio="xMidYMid meet">
<metadata>
Created by potrace 1.11, written by Peter Selinger 2001-2013
</metadata>
<g transform="translate(0.000000,529.000000) scale(0.100000,-0.100000)"
fill="#000000" stroke="none">
<path d="M2111 4932 c-6 -11 -87 -81 -180 -158 -164 -134 -232 -175 -277 -168
-10 2 -57 6 -104 9 -47 3 -103 7 -125 10 -69 7 -228 18 -280 19 -49 1 -50 0
-51 -29 0 -20 -41 -96 -127 -235 l-127 -204 -40 -1 c-48 -1 -71 -21 -76 -66
-2 -18 -7 -36 -12 -40 -4 -4 -114 -83 -244 -177 -229 -165 -238 -170 -277
-165 -33 5 -44 1 -66 -21 -22 -22 -26 -34 -22 -59 3 -20 -15 -112 -49 -249
-30 -120 -54 -221 -54 -227 0 -5 46 -73 102 -152 85 -119 101 -149 100 -176
-2 -24 4 -40 22 -58 25 -25 26 -30 28 -181 l3 -156 170 -89 c94 -49 186 -97
205 -106 24 -13 37 -28 42 -50 17 -66 81 -82 131 -31 31 31 89 48 246 73 19 3
44 8 56 11 19 5 25 -1 39 -38 9 -24 56 -154 104 -290 l89 -248 -23 -32 c-29
-38 -30 -68 -6 -99 14 -16 28 -22 53 -20 106 7 236 4 484 -13 33 -3 105 -8
160 -11 55 -4 118 -8 140 -10 22 -2 92 -7 155 -11 71 -4 122 -12 135 -20 11
-8 35 -14 55 -14 32 0 49 -13 190 -154 208 -207 205 -203 193 -218 -26 -33
-24 -56 8 -93 29 -32 37 -36 66 -32 33 6 33 6 264 -291 126 -163 239 -303 249
-310 16 -12 21 -11 39 7 12 12 17 27 14 39 -4 16 12 147 32 251 1 9 8 49 15
89 l12 72 36 1 c21 0 48 2 62 4 14 1 61 6 105 10 44 4 87 8 95 10 8 1 49 6 90
9 41 4 93 9 115 11 176 17 170 17 189 -4 25 -28 86 -28 110 -2 11 12 19 40 21
73 4 79 184 522 214 526 31 5 64 52 57 83 -4 23 3 34 42 71 26 23 98 89 159
146 61 57 129 118 150 137 21 19 62 57 92 84 39 37 62 51 82 51 64 0 94 76 49
125 -20 21 -19 32 5 195 32 210 45 307 40 318 -5 14 -41 240 -51 322 -3 24 -7
47 -10 49 -2 3 5 14 17 27 31 33 28 79 -8 117 -17 18 -38 41 -46 52 -9 11
-111 139 -227 285 -116 146 -219 272 -229 280 -10 8 -60 121 -110 251 -76 194
-90 240 -82 260 11 30 -8 83 -34 93 -27 10 -59 7 -80 -8 -17 -11 -32 -9 -110
16 -49 16 -94 30 -100 32 -5 1 -89 28 -186 59 -163 53 -178 59 -189 86 -11 28
-61 57 -75 43 -3 -3 -81 69 -173 161 -177 176 -180 178 -242 149 -14 -6 -159
-46 -324 -88 -288 -74 -300 -76 -326 -60 -35 20 -51 20 -87 0 -27 -16 -33 -14
-256 75 -125 50 -229 91 -232 91 -2 0 -9 -8 -14 -18z m274 -138 c230 -92 231
-93 250 -249 3 -27 8 -63 10 -80 3 -16 12 -84 20 -150 17 -129 23 -166 30
-205 3 -14 7 -47 11 -75 3 -27 12 -93 20 -145 19 -129 19 -125 -18 -99 -18 13
-37 28 -43 34 -5 6 -62 54 -125 106 -63 52 -123 101 -133 109 -9 8 -146 123
-304 255 -192 160 -288 247 -290 262 -2 17 32 50 170 164 94 78 174 147 176
151 4 11 -12 16 226 -78z m1160 -69 c189 -190 189 -190 89 -275 -36 -30 -75
-64 -88 -75 -22 -19 -127 -111 -170 -148 -12 -11 -45 -40 -75 -65 -30 -26 -59
-52 -66 -59 -12 -12 -51 -45 -160 -138 -32 -27 -63 -55 -69 -61 -6 -5 -48 -43
-94 -83 -81 -72 -111 -83 -113 -44 0 10 -2 25 -3 33 -2 8 -6 44 -10 80 -3 36
-8 76 -10 90 -3 14 -7 50 -10 80 -6 62 -13 113 -26 215 -5 39 -12 97 -16 130
-4 33 -8 71 -10 85 -16 144 -16 155 6 193 12 20 24 37 27 37 6 0 455 116 543
140 36 10 73 19 83 19 10 1 82 -63 172 -154z m-2285 -140 c47 -3 110 -8 140
-10 30 -3 93 -8 140 -11 47 -4 92 -8 100 -10 8 -1 17 -3 20 -3 3 -1 6 -11 7
-23 1 -11 7 -24 12 -27 6 -4 -37 -162 -110 -401 -67 -217 -127 -415 -134 -440
-7 -25 -30 -99 -50 -165 -20 -66 -44 -144 -52 -172 -9 -29 -19 -51 -23 -48 -3
2 -29 41 -56 87 -26 46 -128 217 -226 381 -148 248 -176 302 -168 318 6 10 10
34 8 52 -1 27 12 55 60 131 34 53 62 98 62 100 0 2 32 55 71 118 69 109 95
142 108 134 3 -2 44 -7 91 -11z m2860 -174 c139 -45 260 -87 267 -93 7 -6 13
-16 13 -24 0 -17 39 -44 66 -44 17 0 29 -21 73 -137 29 -76 58 -151 65 -168 7
-16 28 -67 46 -112 l32 -83 -22 -37 c-61 -103 -493 -773 -499 -773 -5 0 -21
63 -47 185 -2 6 -34 152 -73 325 -39 173 -74 326 -76 340 -3 14 -39 174 -79
355 -75 335 -78 364 -37 352 9 -3 131 -41 271 -86z m-1873 -312 c252 -210 459
-387 461 -395 5 -22 96 10 -1221 -435 -49 -17 -91 -28 -94 -25 -3 3 14 69 37
148 23 79 44 150 45 158 2 8 23 78 46 155 23 77 42 145 43 150 2 6 12 42 23
80 12 39 52 174 88 300 37 127 73 233 79 237 6 4 16 8 23 8 7 0 218 -172 470
-381z m1518 349 c25 -109 98 -438 101 -458 3 -14 12 -54 20 -90 9 -36 17 -74
20 -85 6 -30 160 -720 179 -799 9 -37 14 -70 12 -72 -2 -3 -373 213 -557 325
-8 5 -165 98 -347 208 -183 109 -333 203 -333 209 0 12 53 61 315 289 94 81
184 159 200 174 17 14 62 53 100 86 39 33 79 69 91 80 11 11 43 39 70 62 27
23 63 53 79 67 37 32 43 32 50 4z m-2978 -418 c6 0 46 -57 89 -127 42 -71 92
-150 109 -178 18 -27 92 -148 165 -268 115 -189 131 -221 122 -241 -10 -22 2
-18 -557 -191 -77 -24 -198 -61 -269 -83 -94 -29 -136 -38 -155 -32 -15 4 -35
4 -43 -1 -12 -7 -35 20 -107 120 l-91 129 52 211 53 211 27 0 c35 0 61 30 68
76 5 33 20 46 245 209 170 123 246 173 260 170 11 -3 25 -5 32 -5z m3980 -398
c7 -8 26 -30 41 -50 15 -21 47 -62 72 -93 25 -30 61 -75 80 -99 19 -24 65 -81
103 -127 37 -46 67 -87 67 -91 0 -4 -5 -20 -12 -34 -13 -27 -15 -27 -268 -84
-152 -33 -436 -98 -522 -119 -54 -12 -98 -20 -98 -16 0 4 24 44 53 89 28 45
133 209 231 365 99 155 186 290 194 300 14 16 16 16 31 -5 8 -13 21 -29 28
-36z m-2031 -66 c-11 -82 -16 -114 -36 -236 -11 -63 -22 -131 -24 -150 -3 -19
-11 -78 -20 -130 -8 -52 -17 -115 -21 -140 -3 -25 -10 -67 -15 -95 -5 -27 -12
-72 -15 -100 -8 -58 -20 -85 -39 -85 -12 0 -123 53 -751 354 -88 43 -213 102
-277 133 -65 31 -118 60 -118 63 0 4 17 12 38 18 32 9 721 242 1137 385 72 24
134 42 139 39 4 -2 5 -28 2 -56z m575 -229 c261 -155 538 -320 616 -367 87
-51 138 -87 130 -91 -11 -6 -37 -12 -164 -35 -16 -3 -104 -20 -198 -39 -182
-36 -179 -36 -300 -59 -44 -9 -91 -18 -105 -21 -14 -3 -36 -7 -50 -10 -14 -2
-143 -28 -288 -56 -218 -43 -267 -50 -288 -40 -14 6 -23 14 -21 19 3 4 8 30
11 57 4 28 9 59 11 70 5 23 15 85 21 135 2 19 9 58 14 85 5 28 12 70 15 95 3
25 9 59 12 75 3 17 6 44 8 60 1 17 5 44 9 60 3 17 8 44 10 60 3 17 7 44 10 60
3 17 10 67 17 113 10 75 26 112 49 112 4 0 221 -127 481 -283z m-2066 -388
c-19 -101 -37 -195 -40 -209 -3 -14 -8 -38 -11 -54 -9 -53 -64 -330 -69 -352
-5 -21 -19 -26 -154 -51 -13 -2 -52 -10 -86 -17 -56 -12 -64 -11 -84 6 -26 20
-72 24 -100 7 -15 -10 -45 2 -187 76 -93 48 -179 94 -191 102 -20 13 -21 21
-21 161 1 140 2 147 24 165 12 9 24 29 26 44 3 27 3 27 353 133 33 10 175 54
315 97 140 44 256 79 258 78 2 -2 -13 -85 -33 -186z m356 72 c112 -54 242
-117 289 -139 47 -22 171 -81 275 -132 105 -50 230 -110 278 -133 119 -57 117
-63 -34 -181 -253 -199 -611 -479 -796 -624 -107 -85 -200 -151 -207 -149 -7
3 -50 110 -95 238 -45 129 -93 262 -107 297 -13 34 -24 73 -24 87 0 13 22 124
49 247 26 123 65 303 86 400 37 172 41 180 76 187 4 0 98 -43 210 -98z m3542
28 c12 -7 23 -13 25 -14 2 -2 18 -87 26 -145 3 -19 12 -84 21 -145 15 -96 15
-221 1 -243 -2 -4 -9 -50 -16 -102 -21 -164 -30 -220 -35 -220 -2 0 -104 70
-227 157 -234 164 -280 196 -551 383 -91 63 -165 119 -163 125 2 8 680 172
836 201 13 3 27 7 29 10 8 7 32 4 54 -7z m-1053 -239 c0 -15 -371 -842 -384
-857 -8 -9 -31 1 -96 42 -47 30 -96 60 -110 68 -27 15 -762 477 -769 483 -8 8
6 14 45 19 21 3 45 8 53 11 8 2 30 7 50 10 20 3 52 9 71 14 19 5 51 11 71 14
20 3 89 16 155 30 65 13 155 31 199 40 122 23 121 23 260 51 72 14 146 28 165
31 19 3 37 7 40 9 3 2 23 6 45 10 22 3 67 12 100 18 81 17 105 19 105 7z m410
-240 c168 -117 376 -262 462 -322 155 -108 157 -110 152 -141 -6 -33 -40 -69
-240 -252 -54 -49 -135 -124 -180 -166 -45 -42 -102 -86 -127 -98 l-46 -22
-360 148 c-272 111 -361 152 -361 165 0 9 -7 23 -15 32 -8 8 -15 18 -15 21 0
6 314 709 367 823 12 26 21 33 37 29 12 -2 158 -100 326 -217z m-1473 -289
c197 -121 363 -224 368 -229 6 -5 15 -11 21 -13 5 -2 60 -35 122 -73 99 -60
129 -86 105 -86 -5 0 -255 -67 -558 -149 -555 -151 -585 -157 -585 -116 0 8
14 108 30 222 17 115 32 222 34 238 9 64 19 131 21 145 6 35 16 104 31 215 6
48 16 65 41 65 6 0 173 -99 370 -219z m-482 33 c-14 -93 -27 -187 -31 -209 -3
-22 -14 -98 -25 -170 -11 -71 -27 -179 -35 -240 -9 -60 -22 -117 -30 -126 -8
-8 -14 -21 -14 -27 0 -9 -17 -11 -57 -8 -32 3 -105 8 -163 11 -58 3 -125 7
-150 10 -25 2 -94 7 -155 10 -60 4 -130 8 -155 10 -25 2 -97 7 -160 10 -63 4
-118 9 -122 11 -27 17 -34 10 542 450 413 315 556 424 565 432 6 5 11 9 12 8
1 -1 -9 -78 -22 -172z m1120 -516 c-5 -24 -40 -233 -50 -303 -7 -46 -13 -81
-19 -110 -2 -11 -7 -45 -11 -75 -4 -30 -9 -64 -11 -75 -2 -11 -11 -63 -19
-115 -9 -52 -17 -104 -19 -115 -2 -11 -7 -40 -10 -65 -4 -25 -14 -65 -21 -90
-8 -25 -17 -63 -20 -85 -3 -23 -7 -50 -9 -60 -2 -11 -9 -51 -15 -90 -11 -71
-19 -117 -20 -124 -1 -2 -93 115 -206 260 -154 199 -205 271 -205 292 0 16 -9
35 -22 47 -54 45 -432 419 -428 423 8 7 1053 306 1073 306 13 1 16 -5 12 -21z
m497 -146 c285 -117 359 -151 367 -169 9 -20 -4 -61 -85 -263 -53 -132 -101
-241 -108 -241 -47 -5 -74 -18 -81 -40 -5 -13 -16 -19 -38 -20 -18 0 -40 -2
-50 -4 -9 -2 -57 -6 -105 -10 -140 -12 -270 -24 -317 -30 -16 -2 -65 -7 -108
-10 l-78 -7 5 24 c5 20 15 76 30 173 3 17 19 111 35 210 17 99 33 197 37 219
3 21 7 47 9 56 2 10 7 40 11 67 5 26 9 50 9 53 6 27 18 117 17 122 -3 10 60
27 78 22 8 -3 176 -71 372 -152z"/>
</g>
</svg>
