<?xml version="1.0" standalone="no"?>
<!DOCTYPE svg PUBLIC "-//W3C//DTD SVG 20010904//EN"
 "http://www.w3.org/TR/2001/REC-SVG-20010904/DTD/svg10.dtd">
<svg version="1.0" xmlns="http://www.w3.org/2000/svg"
 width="592.000000pt" height="592.000000pt" viewBox="0 0 592.000000 592.000000"
 preserveAspectRatio="xMidYMid meet">
<metadata>
Created by potrace 1.11, written by Peter Selinger 2001-2013
</metadata>
<g transform="translate(0.000000,592.000000) scale(0.100000,-0.100000)"
fill="#000000" stroke="none">
<path d="M0 2960 l0 -2960 2960 0 2960 0 0 2960 0 2960 -2960 0 -2960 0 0
-2960z m2655 2120 c192 -77 222 -86 236 -74 20 18 78 18 98 0 14 -12 60 -2
336 71 176 47 336 87 355 90 34 4 40 -1 195 -156 121 -122 166 -161 185 -161
33 0 46 -9 64 -45 14 -26 35 -35 287 -116 266 -86 272 -87 304 -72 47 22 83
11 101 -32 9 -23 11 -42 5 -58 -7 -19 9 -70 84 -260 51 -131 101 -245 113
-254 11 -10 128 -154 260 -320 133 -165 246 -304 251 -308 17 -10 13 -76 -6
-97 -18 -20 -14 -59 32 -343 15 -88 14 -94 -19 -320 -33 -226 -34 -230 -15
-251 24 -25 25 -81 2 -106 -9 -10 -30 -18 -47 -18 -26 -1 -69 -35 -281 -231
-239 -221 -249 -232 -246 -264 3 -38 -26 -75 -58 -75 -27 0 -224 -491 -215
-535 9 -46 -26 -85 -76 -85 -28 0 -43 6 -53 21 l-15 20 -333 -32 c-184 -17
-337 -34 -341 -38 -9 -8 -68 -369 -68 -415 0 -34 -17 -50 -43 -40 -6 2 -118
141 -247 308 l-235 304 -36 -5 c-31 -4 -39 -1 -62 27 -29 34 -33 59 -16 92 10
19 -6 38 -167 199 -161 161 -182 179 -212 179 -19 0 -46 7 -60 15 -37 20 -991
82 -1021 66 -31 -17 -69 -13 -91 9 -27 27 -27 83 1 111 l21 21 -102 286 c-57
158 -106 290 -109 295 -10 10 -305 -51 -310 -64 -8 -25 -43 -49 -71 -49 -36 0
-70 31 -70 63 0 21 -28 39 -215 136 l-215 113 0 155 c0 147 -1 156 -22 172
-15 13 -22 30 -22 57 -1 34 -16 61 -98 176 -64 89 -98 146 -98 163 0 14 22
115 50 225 27 110 50 220 50 244 0 62 28 88 88 84 42 -3 52 3 287 172 228 163
245 177 245 206 0 40 25 62 75 66 l40 3 127 205 c95 153 128 213 128 238 l0
33 48 -6 c167 -20 537 -43 553 -35 10 6 25 10 33 10 19 0 370 287 374 306 6
25 45 14 267 -76z"/>
<path d="M2440 5102 c0 -5 -78 -73 -173 -151 -159 -130 -173 -144 -169 -170 3
-22 89 -99 463 -411 253 -210 462 -380 464 -378 3 2 -23 202 -56 444 -48 339
-65 444 -79 459 -9 11 -19 27 -22 35 -3 9 -89 49 -199 92 -243 97 -229 92
-229 80z"/>
<path d="M3331 5026 c-261 -68 -315 -86 -321 -102 -4 -11 -14 -25 -22 -31 -12
-11 -7 -75 38 -450 29 -241 53 -443 53 -449 2 -43 54 -4 469 358 435 380 437
382 434 417 -3 31 -24 56 -155 189 -84 83 -159 152 -167 151 -8 0 -156 -38
-329 -83z"/>
<path d="M1287 4598 c-117 -191 -137 -229 -137 -263 0 -23 -5 -46 -11 -52 -9
-9 46 -109 221 -403 128 -215 236 -387 240 -383 4 4 90 280 190 612 150 496
181 607 172 622 -7 10 -12 25 -12 33 0 10 -15 17 -42 20 -58 8 -416 36 -454
36 -27 0 -38 -13 -167 -222z"/>
<path d="M4101 4716 c-9 -10 27 -184 160 -777 93 -420 174 -768 178 -772 11
-11 5 -19 284 419 131 204 237 379 237 388 0 12 -118 323 -187 494 -3 6 -16
12 -29 12 -27 0 -64 32 -64 55 0 10 -78 39 -262 99 -145 46 -272 87 -284 90
-13 4 -26 1 -33 -8z"/>
<path d="M2038 4703 c-10 -2 -18 -6 -18 -8 0 -2 -79 -275 -175 -606 -97 -332
-174 -608 -171 -615 3 -9 134 31 448 138 929 315 863 291 866 314 2 17 -85 95
-454 403 -252 209 -463 380 -469 380 -5 -1 -18 -3 -27 -6z"/>
<path d="M3582 4318 c-316 -275 -440 -388 -439 -402 1 -13 174 -121 612 -382
335 -200 612 -371 616 -381 4 -11 8 -13 13 -5 10 16 -336 1552 -350 1552 -6 0
-210 -172 -452 -382z"/>
<path d="M779 4094 c-238 -171 -244 -176 -250 -215 -7 -47 -17 -59 -60 -68
l-33 -7 -52 -209 -52 -210 33 -45 c18 -25 58 -81 89 -124 l56 -79 58 -2 c48
-2 127 20 516 140 413 128 460 144 472 167 13 25 4 42 -217 405 -127 208 -238
385 -248 394 -43 43 -53 39 -312 -147z"/>
<path d="M4748 3532 c-185 -291 -243 -388 -230 -389 9 -1 208 41 441 95 l424
97 18 32 18 32 -207 260 c-114 143 -209 260 -212 260 -3 0 -116 -174 -252
-387z"/>
<path d="M2352 3637 c-358 -122 -651 -226 -649 -231 2 -6 259 -133 571 -283
604 -290 597 -288 610 -226 3 16 37 233 76 483 56 364 68 456 58 466 -10 10
-151 -34 -666 -209z"/>
<path d="M3095 3841 c-18 -7 -27 -55 -96 -492 -74 -472 -75 -484 -57 -502 18
-18 40 -15 711 118 380 75 694 138 697 141 3 3 -4 12 -15 20 -30 22 -1191 713
-1207 718 -7 3 -22 1 -33 -3z"/>
<path d="M1090 3226 l-454 -142 -7 -35 c-4 -18 -17 -40 -28 -48 -20 -13 -21
-23 -21 -157 0 -101 4 -145 12 -151 7 -4 94 -51 193 -104 162 -86 182 -95 200
-83 28 20 72 17 96 -7 l20 -20 151 30 c83 17 153 33 155 34 4 4 151 757 155
796 2 13 -1 25 -7 26 -5 1 -215 -61 -465 -139z"/>
<path d="M1648 3343 c-9 -2 -19 -16 -22 -31 -3 -15 -42 -193 -86 -397 -44
-203 -80 -381 -79 -395 0 -14 49 -160 108 -325 77 -213 113 -301 124 -303 18
-4 1115 851 1124 876 4 8 2 21 -3 29 -9 15 -1122 554 -1139 552 -5 -1 -18 -3
-27 -6z"/>
<path d="M4945 3189 c-231 -54 -426 -101 -433 -104 -8 -3 -12 -10 -10 -16 4
-13 941 -668 947 -663 3 2 19 104 36 227 l32 222 -29 200 c-26 171 -33 202
-52 217 -11 10 -32 17 -46 17 -14 -1 -214 -46 -445 -100z"/>
<path d="M4080 3000 c-129 -26 -425 -85 -657 -130 -233 -46 -423 -86 -423 -89
1 -12 971 -613 983 -608 16 6 399 856 391 868 -9 15 -47 9 -294 -41z"/>
<path d="M4434 3012 c-6 -4 -95 -195 -198 -425 -151 -334 -186 -420 -176 -431
6 -8 15 -27 19 -41 6 -25 39 -40 366 -175 284 -117 363 -146 374 -137 8 7 27
16 42 22 15 5 142 115 281 243 211 195 254 239 259 267 l6 33 -468 326 c-257
179 -473 326 -480 326 -8 0 -19 -4 -25 -8z"/>
<path d="M2922 2727 c-12 -6 -22 -13 -22 -17 0 -3 -27 -195 -60 -425 -33 -230
-60 -429 -60 -441 0 -47 32 -41 601 113 417 113 549 152 548 163 0 9 -152 108
-372 242 -205 125 -426 261 -492 301 -102 63 -124 72 -143 64z"/>
<path d="M2285 2289 c-308 -236 -561 -435 -563 -443 -2 -8 1 -17 6 -20 9 -5
877 -66 937 -66 48 0 58 41 124 495 34 237 65 438 67 448 3 9 2 17 -3 16 -4 0
-260 -193 -568 -430z"/>
<path d="M3392 1901 l-543 -155 188 -189 c104 -104 207 -202 231 -218 34 -25
42 -36 42 -62 0 -26 35 -77 191 -277 105 -135 198 -253 208 -263 16 -17 18 -9
45 162 15 99 32 181 37 183 13 5 165 957 154 966 -6 5 -244 -58 -553 -147z"/>
<path d="M4025 2027 l-31 -10 -76 -461 c-43 -253 -75 -463 -72 -465 2 -3 155
9 340 26 332 31 335 31 355 57 15 19 30 26 54 26 l33 0 97 242 c115 287 115
280 2 327 -339 140 -661 271 -666 270 -3 -1 -20 -6 -36 -12z"/>
</g>
</svg>
