<?xml version="1.0" encoding="utf-8"?>
<!-- Generator: Adobe Illustrator 19.1.0, SVG Export Plug-In . SVG Version: 6.00 Build 0)  -->
<svg version="1.1" id="Layer_1" xmlns="http://www.w3.org/2000/svg" xmlns:xlink="http://www.w3.org/1999/xlink" x="0px" y="0px"
	 viewBox="-635 937 128 128" style="enable-background:new -635 937 128 128;" xml:space="preserve">
<style type="text/css">
	.st0{opacity:0.6;fill:#D1D1D1;enable-background:new    ;}
	.st1{fill:#AF61D5;}
	.st2{fill:#D261C1;}
	.st3{fill:#FF61AD;}
	.st4{fill:#312883;}
	.st5{fill:#161144;}
	.st6{fill:#924ABC;}
</style>
<path class="st0" d="M-511.6,983.6c1.3-0.1,2.3-1.4,2.3-3v-26.8c0-1.6-1-2.9-2.3-3l-5.5-0.5V939c0-1.1-0.9-2-2-2h-102.4
	c-1.1,0-2,0.9-2,2v124c0,1.1,0.9,2,2,2H-519c1.1,0,2-0.9,2-2v-11.2l5.5-0.5c1.3-0.1,2.3-1.4,2.3-3v-26.8c0-1.6-1-2.9-2.3-3l-4.3-0.4
	l4.3-0.4c1.3-0.1,2.3-1.4,2.3-3v-26.8c0-1.6-1-2.9-2.3-3l-5.5-0.5v-0.3L-511.6,983.6z"/>
<g>
	<path class="st1" d="M-515.6,1048.6l-13,1.2c-1.4,0.1-2.6-1.2-2.6-2.9v-28.5c0-1.7,1.2-3.1,2.6-2.9l13,1.2c1.3,0.1,2.2,1.4,2.2,2.9
		v26.1C-513.4,1047.2-514.3,1048.5-515.6,1048.6z"/>
	<path class="st2" d="M-515.6,1015.8l-13,1.2c-1.4,0.1-2.6-1.2-2.6-2.9v-28.5c0-1.7,1.2-3.1,2.6-2.9l13,1.2c1.3,0.1,2.2,1.4,2.2,2.9
		v26.1C-513.4,1014.4-514.3,1015.7-515.6,1015.8z"/>
	<path class="st3" d="M-515.6,982.5l-13,1.2c-1.4,0.1-2.6-1.2-2.6-2.9v-28.5c0-1.7,1.2-3.1,2.6-2.9l13,1.2c1.3,0.1,2.2,1.4,2.2,2.9
		v26.1C-513.4,981.1-514.3,982.4-515.6,982.5z"/>
	<path class="st4" d="M-523,1061.9h-101.2c-1.1,0-1.9-0.9-1.9-1.9v-121c0-1.1,0.9-1.9,1.9-1.9H-523c1.1,0,1.9,0.9,1.9,1.9v121
		C-521,1061-521.9,1061.9-523,1061.9z"/>
	<path class="st5" d="M-621.6,957.1h-7.1c-0.7,0-1.2-0.6-1.2-1.2v-5.4c0-0.7,0.6-1.2,1.2-1.2h7.1c0.7,0,1.2,0.6,1.2,1.2v5.4
		C-620.4,956.6-620.9,957.1-621.6,957.1z"/>
	<path class="st5" d="M-621.6,988h-7.1c-0.7,0-1.2-0.6-1.2-1.2v-5.4c0-0.7,0.6-1.2,1.2-1.2h7.1c0.7,0,1.2,0.6,1.2,1.2v5.4
		C-620.4,987.5-620.9,988-621.6,988z"/>
	<path class="st5" d="M-621.6,1018.9h-7.1c-0.7,0-1.2-0.6-1.2-1.2v-5.4c0-0.7,0.6-1.2,1.2-1.2h7.1c0.7,0,1.2,0.6,1.2,1.2v5.4
		C-620.4,1018.3-620.9,1018.9-621.6,1018.9z"/>
	<path class="st5" d="M-621.6,1049.8h-7.1c-0.7,0-1.2-0.6-1.2-1.2v-5.4c0-0.7,0.6-1.2,1.2-1.2h7.1c0.7,0,1.2,0.6,1.2,1.2v5.4
		C-620.4,1049.2-620.9,1049.8-621.6,1049.8z"/>
	<polyline class="st6" points="-601.6,976.7 -593.6,990.1 -593,989.7 -600.9,976.3 	"/>
	<polyline class="st6" points="-593.2,990.3 -571.8,983.1 -572.1,982.4 -593.4,989.5 	"/>
	<polyline class="st6" points="-587.6,969.8 -593.7,989.8 -592.9,990 -586.8,970 	"/>
	<polyline class="st6" points="-587.4,970.2 -572.2,983 -571.7,982.4 -586.9,969.6 	"/>
	<polyline class="st6" points="-571.7,983 -557.4,970.6 -557.9,970 -572.2,982.4 	"/>
	<polyline class="st6" points="-558.1,970.4 -552.7,994.8 -551.9,994.7 -557.3,970.3 	"/>
	<polyline class="st6" points="-552.3,994.4 -574.6,998.7 -574.4,999.4 -552.2,995.1 	"/>
	<polyline class="st6" points="-574.1,999 -571.6,982.8 -572.3,982.7 -574.9,998.8 	"/>
	<polyline class="st6" points="-572.1,983.1 -553.2,994.3 -552.8,993.6 -571.7,982.4 	"/>
	<polyline class="st6" points="-552.6,994.6 -558.9,1009.1 -558.2,1009.4 -551.9,994.9 	"/>
	<polyline class="st6" points="-558.7,1009.6 -546.2,1014.6 -545.9,1013.9 -558.4,1008.9 	"/>
	<polyline class="st6" points="-552.2,995.1 -536.5,991.4 -536.7,990.7 -552.4,994.4 	"/>
	<polyline class="st6" points="-608.3,995.1 -593.2,990.3 -593.4,989.5 -608.6,994.4 	"/>
	<polyline class="st6" points="-574.9,998.8 -577.1,1014 -576.3,1014.1 -574.1,999 	"/>
	<polyline class="st6" points="-574.5,999.4 -558.6,1009.2 -558.2,1008.5 -574.1,998.7 	"/>
	<polyline class="st6" points="-593.5,990.2 -574.6,999.2 -574.3,998.5 -593.1,989.5 	"/>
	<polyline class="st6" points="-595.7,1003.3 -592.9,990 -593.7,989.8 -596.5,1003.2 	"/>
	<polyline class="st6" points="-552.5,995.1 -536.8,1005.8 -536.4,1005.1 -552.1,994.4 	"/>
	<polyline class="st6" points="-576,1014.4 -558.4,1009.6 -558.6,1008.8 -576.2,1013.7 	"/>
	<polyline class="st6" points="-592.6,1013.6 -574.2,999.2 -574.7,998.6 -593.1,1013 	"/>
	<polyline class="st6" points="-574.4,967.3 -572.4,982.5 -571.6,982.4 -573.7,967.2 	"/>
	<polyline class="st6" points="-544.3,981.6 -552.6,994.5 -551.9,995 -543.6,982 	"/>
	<path class="st3" d="M-601.5,1004.4l5.4-0.9c0.2,0,0.4-0.2,0.3-0.4s-0.2-0.4-0.4-0.3l-5.4,0.9c-0.2,0-0.4,0.2-0.3,0.4
		C-601.9,1004.2-601.7,1004.4-601.5,1004.4"/>
	<path class="st3" d="M-608.7,1000.8l6.9,3.7c0.2,0.1,0.4,0,0.5-0.2c0.1-0.2,0-0.4-0.2-0.5l-6.9-3.7c-0.2-0.1-0.4,0-0.5,0.2
		C-609,1000.5-608.9,1000.7-608.7,1000.8"/>
	<path class="st3" d="M-609.1,995.2l0.1,5.3c0,0.2,0.2,0.4,0.4,0.4c0.2,0,0.4-0.2,0.4-0.4l-0.1-5.3c0-0.2-0.2-0.4-0.4-0.4
		C-608.9,994.8-609.1,995-609.1,995.2"/>
	<path class="st3" d="M-610.7,982.8l-1.9,7.2c-0.1,0.2,0.1,0.4,0.3,0.5c0.2,0.1,0.4-0.1,0.5-0.3l1.9-7.2c0.1-0.2-0.1-0.4-0.3-0.5
		C-610.4,982.5-610.7,982.6-610.7,982.8"/>
	<path class="st3" d="M-612.6,990.3l3.6,5.1c0.1,0.2,0.4,0.2,0.5,0.1s0.2-0.4,0.1-0.5l-3.6-5.1c-0.1-0.2-0.4-0.2-0.5-0.1
		C-612.7,989.9-612.7,990.1-612.6,990.3"/>
	<path class="st3" d="M-610,983.2l9-6.4c0.2-0.1,0.2-0.4,0.1-0.5c-0.1-0.2-0.4-0.2-0.5-0.1l-9,6.4c-0.2,0.1-0.2,0.4-0.1,0.5
		C-610.4,983.3-610.1,983.4-610,983.2"/>
	<path class="st3" d="M-600.8,976.7l4.9-7.6c0.1-0.2,0.1-0.4-0.1-0.5c-0.2-0.1-0.4-0.1-0.5,0.1l-4.9,7.6c-0.1,0.2-0.1,0.4,0.1,0.5
		S-600.9,976.9-600.8,976.7"/>
	<path class="st3" d="M-596.3,969.4l8.9,0.9c0.2,0,0.4-0.1,0.4-0.3c0-0.2-0.1-0.4-0.3-0.4l-8.9-0.9c-0.2,0-0.4,0.1-0.4,0.3
		C-596.7,969.2-596.5,969.3-596.3,969.4"/>
	<path class="st3" d="M-587.2,970.2l6-5.2c0.2-0.1,0.2-0.4,0-0.5c-0.1-0.2-0.4-0.2-0.5,0l-6,5.2c-0.2,0.1-0.2,0.4,0,0.5
		C-587.6,970.3-587.3,970.4-587.2,970.2"/>
	<path class="st3" d="M-581.5,965.1l7.4,2.7c0.2,0.1,0.4,0,0.5-0.2s0-0.4-0.2-0.5l-7.4-2.7c-0.2-0.1-0.4,0-0.5,0.2
		C-581.8,964.8-581.7,965-581.5,965.1"/>
	<path class="st3" d="M-573.9,967.8l11.1-2.7c0.2-0.1,0.3-0.3,0.3-0.5c-0.1-0.2-0.3-0.3-0.5-0.3l-11.1,2.7c-0.2,0.1-0.3,0.3-0.3,0.5
		C-574.3,967.8-574.1,967.9-573.9,967.8"/>
	<path class="st3" d="M-563.2,965l5.4,5.4c0.2,0.2,0.4,0.2,0.5,0c0.2-0.2,0.2-0.4,0-0.5l-5.4-5.4c-0.2-0.2-0.4-0.2-0.5,0
		C-563.4,964.6-563.4,964.8-563.2,965"/>
	<path class="st3" d="M-557.6,970.5l10.3,3.2c0.2,0.1,0.4-0.1,0.5-0.3s-0.1-0.4-0.3-0.5l-10.3-3.2c-0.2-0.1-0.4,0.1-0.5,0.3
		S-557.8,970.5-557.6,970.5"/>
	<path class="st3" d="M-547.6,973.5l3.3,8.5c0.1,0.2,0.3,0.3,0.5,0.2c0.2-0.1,0.3-0.3,0.2-0.5l-3.3-8.5c-0.1-0.2-0.3-0.3-0.5-0.2
		C-547.6,973.1-547.7,973.3-547.6,973.5"/>
	<path class="st3" d="M-544.2,982.1l7.3,9.1c0.1,0.2,0.4,0.2,0.5,0.1c0.2-0.1,0.2-0.4,0.1-0.5l-7.3-9.1c-0.1-0.2-0.4-0.2-0.5-0.1
		C-544.3,981.7-544.4,981.9-544.2,982.1"/>
	<path class="st3" d="M-537.1,991l1.1,7.2c0,0.2,0.2,0.4,0.4,0.3c0.2,0,0.4-0.2,0.3-0.4l-1.1-7.2c0-0.2-0.2-0.4-0.4-0.3
		C-537,990.6-537.2,990.8-537.1,991"/>
	<path class="st3" d="M-536.1,998l-1.1,7.7c0,0.2,0.1,0.4,0.3,0.4c0.2,0,0.4-0.1,0.4-0.3l1.1-7.7c0-0.2-0.1-0.4-0.3-0.4
		C-535.9,997.6-536,997.8-536.1,998"/>
	<path class="st3" d="M-545.5,1014.6l9-8.5c0.2-0.1,0.2-0.4,0-0.5c-0.1-0.2-0.4-0.2-0.5,0l-9,8.5c-0.2,0.1-0.2,0.4,0,0.5
		C-545.9,1014.7-545.7,1014.7-545.5,1014.6"/>
	<path class="st3" d="M-546.2,1014.2l-3.7,9c-0.1,0.2,0,0.4,0.2,0.5s0.4,0,0.5-0.2l3.7-9c0.1-0.2,0-0.4-0.2-0.5
		C-545.8,1013.9-546.1,1014-546.2,1014.2"/>
	<path class="st3" d="M-549.5,1023l-11.5,1.2c-0.2,0-0.3,0.2-0.3,0.4s0.2,0.4,0.4,0.3l11.4-1.2c0.2,0,0.4-0.2,0.3-0.4
		C-549.1,1023.1-549.3,1023-549.5,1023"/>
	<path class="st3" d="M-576.6,1014.6l6.8,7c0.1,0.2,0.4,0.2,0.5,0c0.2-0.1,0.2-0.4,0-0.5l-6.8-7c-0.1-0.2-0.4-0.2-0.5,0
		C-576.7,1014.2-576.7,1014.4-576.6,1014.6"/>
	<path class="st3" d="M-570,1021.5l7.6,9.7c0.1,0.2,0.4,0.2,0.5,0.1c0.2-0.1,0.2-0.4,0.1-0.5l-7.6-9.7c-0.1-0.2-0.4-0.2-0.5-0.1
		C-570.1,1021.1-570.1,1021.4-570,1021.5"/>
	<path class="st3" d="M-592.9,1013.7l16.5,1c0.2,0,0.4-0.2,0.4-0.4c0-0.2-0.2-0.4-0.4-0.4l-16.5-1c-0.2,0-0.4,0.2-0.4,0.4
		C-593.3,1013.5-593.1,1013.7-592.9,1013.7"/>
	<path class="st3" d="M-596.5,1003.2l3.5,10.3c0.1,0.2,0.3,0.3,0.5,0.2c0.2-0.1,0.3-0.3,0.2-0.5l-3.5-10.3c-0.1-0.2-0.3-0.3-0.5-0.2
		C-596.4,1002.8-596.5,1003-596.5,1003.2"/>
	<line class="st3" x1="-569.2" y1="1022.3" x2="-568.8" y2="1022"/>
	<circle class="st3" cx="-608.6" cy="995.2" r="1.2"/>
	<circle class="st3" cx="-601.1" cy="976.5" r="1.2"/>
	<circle class="st3" cx="-593.3" cy="989.8" r="1.2"/>
	<circle class="st3" cx="-574.5" cy="998.9" r="1.2"/>
	<circle class="st3" cx="-552.2" cy="994.8" r="1.2"/>
	<circle class="st3" cx="-571.9" cy="982.7" r="1.2"/>
	<circle class="st3" cx="-547.4" cy="973.3" r="1.2"/>
	<circle class="st3" cx="-536.7" cy="991" r="1.2"/>
	<circle class="st3" cx="-536.7" cy="1005.8" r="1.2"/>
	<circle class="st3" cx="-549.5" cy="1023.4" r="1.2"/>
	<path class="st3" d="M-568.4,1021.1c0.2,0.8-0.6,1.6-1.4,1.4c-0.5-0.1-0.8-0.5-0.9-0.9c-0.2-0.8,0.6-1.6,1.4-1.4
		C-568.8,1020.2-568.5,1020.6-568.4,1021.1z"/>
	<circle class="st3" cx="-592.6" cy="1013.3" r="1.2"/>
	<circle class="st3" cx="-610.2" cy="982.9" r="1.2"/>
	<circle class="st3" cx="-601.7" cy="1004.2" r="1.2"/>
	<circle class="st3" cx="-574" cy="967.5" r="1.2"/>
	<circle class="st3" cx="-587.3" cy="969.9" r="1.2"/>
	<circle class="st3" cx="-545.8" cy="1014.3" r="1.2"/>
	<circle class="st3" cx="-557.5" cy="970.2" r="1.2"/>
	<circle class="st3" cx="-576.3" cy="1014.3" r="1.2"/>
	<polygon class="st6" points="-559,1009.6 -561.5,1024.9 -560.7,1024.9 -558.2,1009.7 	"/>
	<circle class="st3" cx="-558.4" cy="1009.2" r="1.2"/>
	<polygon class="st3" points="-562.5,1030.8 -561.7,1031 -560.6,1024.1 -561.4,1024.2 	"/>
</g>
</svg>
