<?xml version="1.0" encoding="utf-8"?>
<!-- Generator: Adobe Illustrator 19.1.0, SVG Export Plug-In . SVG Version: 6.00 Build 0)  -->
<svg version="1.1" id="Layer_1" xmlns="http://www.w3.org/2000/svg" xmlns:xlink="http://www.w3.org/1999/xlink" x="0px" y="0px"
	 viewBox="-687 989 24 24" style="enable-background:new -687 989 24 24;" xml:space="preserve">
<style type="text/css">
	.st0{fill:#312883;}
	.st1{fill:#924ABC;}
	.st2{fill:#FF61AD;}
</style>
<g id="Layer_2">
</g>
<path class="st0" d="M-664.9,1013h-20.2c-1.1,0-1.9-0.9-1.9-1.9v-20.2c0-1.1,0.9-1.9,1.9-1.9h20.2c1.1,0,1.9,0.9,1.9,1.9v20.2
	C-663,1012.1-663.9,1013-664.9,1013z"/>
<g>
	<g>
		<polyline class="st1" points="-682.7,995.6 -680.5,999.2 -680.4,999.1 -682.6,995.4 		"/>
		<polyline class="st1" points="-680.4,999.3 -674.5,997.3 -674.6,997.1 -680.5,999.1 		"/>
		<polyline class="st1" points="-678.9,993.6 -680.6,999.2 -680.3,999.2 -678.7,993.7 		"/>
		<polyline class="st1" points="-678.8,993.8 -674.6,997.3 -674.5,997.1 -678.7,993.6 		"/>
		<polyline class="st1" points="-674.5,997.3 -670.6,993.9 -670.7,993.7 -674.6,997.1 		"/>
		<polyline class="st1" points="-670.7,993.8 -669.2,1000.5 -669,1000.5 -670.5,993.8 		"/>
		<polyline class="st1" points="-669.2,1000.4 -675.3,1001.6 -675.2,1001.8 -669.1,1000.6 		"/>
		<polyline class="st1" points="-675.2,1001.7 -674.5,997.2 -674.7,997.2 -675.4,1001.7 		"/>
		<polyline class="st1" points="-674.6,997.3 -669.4,1000.4 -669.3,1000.2 -674.5,997.1 		"/>
		<polyline class="st1" points="-669.2,1000.5 -671,1004.5 -670.8,1004.6 -669,1000.6 		"/>
		<polyline class="st1" points="-670.9,1004.6 -667.5,1006 -667.4,1005.8 -670.8,1004.4 		"/>
		<polyline class="st1" points="-669.1,1000.6 -664.8,999.6 -664.8,999.4 -669.2,1000.4 		"/>
		<polyline class="st1" points="-684.6,1000.6 -680.4,999.3 -680.5,999.1 -684.7,1000.4 		"/>
		<polyline class="st1" points="-675.4,1001.7 -676,1005.8 -675.8,1005.9 -675.2,1001.7 		"/>
		<polyline class="st1" points="-675.3,1001.8 -670.9,1004.5 -670.8,1004.3 -675.1,1001.6 		"/>
		<polyline class="st1" points="-680.5,999.3 -675.3,1001.8 -675.2,1001.6 -680.4,999.1 		"/>
		<polyline class="st1" points="-681.1,1002.9 -680.3,999.2 -680.6,999.2 -681.3,1002.8 		"/>
		<polyline class="st1" points="-669.2,1000.6 -664.9,1003.6 -664.8,1003.4 -669.1,1000.4 		"/>
		<polyline class="st1" points="-675.7,1006 -670.8,1004.6 -670.9,1004.4 -675.7,1005.7 		"/>
		<polyline class="st1" points="-680.3,1005.7 -675.2,1001.8 -675.3,1001.6 -680.4,1005.6 		"/>
		<polyline class="st1" points="-675.3,992.9 -674.7,997.2 -674.5,997.1 -675,992.9 		"/>
		<polyline class="st1" points="-666.9,996.9 -669.2,1000.5 -669,1000.6 -666.7,997 		"/>
		<path class="st2" d="M-682.7,1003.2l1.5-0.3c0.1,0,0.1-0.1,0.1-0.1c0-0.1-0.1-0.1-0.1-0.1l-1.5,0.3c-0.1,0-0.1,0.1-0.1,0.1
			C-682.8,1003.1-682.8,1003.2-682.7,1003.2"/>
		<path class="st2" d="M-684.7,1002.2l1.9,1c0.1,0,0.1,0,0.1,0c0-0.1,0-0.1,0-0.1l-1.9-1c-0.1,0-0.1,0-0.1,0
			C-684.8,1002.1-684.8,1002.2-684.7,1002.2"/>
		<path class="st2" d="M-684.8,1000.6l0,1.5c0,0.1,0.1,0.1,0.1,0.1c0.1,0,0.1-0.1,0.1-0.1l0-1.5c0-0.1-0.1-0.1-0.1-0.1
			C-684.8,1000.5-684.8,1000.6-684.8,1000.6"/>
		<path class="st2" d="M-685.3,997.2l-0.5,2c0,0.1,0,0.1,0.1,0.1s0.1,0,0.1-0.1l0.5-2c0-0.1,0-0.1-0.1-0.1S-685.2,997.2-685.3,997.2
			"/>
		<path class="st2" d="M-685.8,999.3l1,1.4c0,0,0.1,0.1,0.1,0c0,0,0.1-0.1,0-0.1l-1-1.4c0,0-0.1-0.1-0.1,0
			C-685.8,999.2-685.8,999.3-685.8,999.3"/>
		<path class="st2" d="M-685,997.3l2.5-1.8c0,0,0.1-0.1,0-0.1c0,0-0.1-0.1-0.1,0l-2.5,1.8c0,0-0.1,0.1,0,0.1
			C-685.2,997.4-685.1,997.4-685,997.3"/>
		<path class="st2" d="M-682.5,995.6l1.3-2.1c0,0,0-0.1,0-0.1c0,0-0.1,0-0.1,0l-1.3,2.1c0,0,0,0.1,0,0.1
			C-682.6,995.6-682.6,995.6-682.5,995.6"/>
		<path class="st2" d="M-681.3,993.5l2.5,0.2c0.1,0,0.1,0,0.1-0.1c0-0.1,0-0.1-0.1-0.1l-2.5-0.2c-0.1,0-0.1,0-0.1,0.1
			C-681.4,993.5-681.3,993.5-681.3,993.5"/>
		<path class="st2" d="M-678.8,993.8l1.7-1.4c0,0,0-0.1,0-0.2c0,0-0.1,0-0.2,0l-1.7,1.4c0,0,0,0.1,0,0.2
			C-678.9,993.8-678.8,993.8-678.8,993.8"/>
		<path class="st2" d="M-677.2,992.3l2,0.8c0.1,0,0.1,0,0.1-0.1c0-0.1,0-0.1-0.1-0.1l-2-0.8c-0.1,0-0.1,0-0.1,0.1
			C-677.3,992.3-677.3,992.3-677.2,992.3"/>
		<path class="st2" d="M-675.1,993.1l3.1-0.8c0.1,0,0.1-0.1,0.1-0.1s-0.1-0.1-0.1-0.1l-3.1,0.8c-0.1,0-0.1,0.1-0.1,0.1
			S-675.2,993.1-675.1,993.1"/>
		<path class="st2" d="M-672.2,992.3l1.5,1.5c0,0,0.1,0,0.2,0s0-0.1,0-0.2l-1.5-1.5c0,0-0.1,0-0.2,0S-672.2,992.3-672.2,992.3"/>
		<path class="st2" d="M-670.6,993.8l2.8,0.9c0.1,0,0.1,0,0.1-0.1c0-0.1,0-0.1-0.1-0.1l-2.8-0.9c-0.1,0-0.1,0-0.1,0.1
			C-670.7,993.8-670.7,993.8-670.6,993.8"/>
		<path class="st2" d="M-667.8,994.7l0.9,2.3c0,0.1,0.1,0.1,0.1,0.1c0.1,0,0.1-0.1,0.1-0.1l-0.9-2.3c0-0.1-0.1-0.1-0.1-0.1
			S-667.9,994.6-667.8,994.7"/>
		<path class="st2" d="M-666.9,997l2,2.5c0,0,0.1,0.1,0.2,0c0,0,0.1-0.1,0-0.2l-2-2.5c0,0-0.1-0.1-0.2,0
			C-666.9,996.9-667,997-666.9,997"/>
		<path class="st2" d="M-665,999.5l0.3,2c0,0.1,0.1,0.1,0.1,0.1c0.1,0,0.1-0.1,0.1-0.1l-0.3-2c0-0.1-0.1-0.1-0.1-0.1
			C-664.9,999.4-665,999.4-665,999.5"/>
		<path class="st2" d="M-664.7,1001.4l-0.3,2.1c0,0.1,0,0.1,0.1,0.1c0.1,0,0.1,0,0.1-0.1l0.3-2.1c0-0.1,0-0.1-0.1-0.1
			C-664.6,1001.3-664.7,1001.4-664.7,1001.4"/>
		<path class="st2" d="M-667.3,1006l2.5-2.3c0,0,0-0.1,0-0.2c0,0-0.1,0-0.2,0l-2.5,2.3c0,0,0,0.1,0,0.2
			C-667.4,1006-667.3,1006-667.3,1006"/>
		<path class="st2" d="M-667.4,1005.9l-1,2.5c0,0.1,0,0.1,0.1,0.1s0.1,0,0.1-0.1l1-2.5c0-0.1,0-0.1-0.1-0.1
			C-667.4,1005.8-667.4,1005.8-667.4,1005.9"/>
		<path class="st2" d="M-668.4,1008.3l-3.2,0.3c-0.1,0-0.1,0.1-0.1,0.1c0,0.1,0.1,0.1,0.1,0.1l3.1-0.3c0.1,0,0.1-0.1,0.1-0.1
			C-668.3,1008.3-668.3,1008.3-668.4,1008.3"/>
		<path class="st2" d="M-675.8,1006l1.9,1.9c0,0,0.1,0,0.2,0c0,0,0-0.1,0-0.2l-1.9-1.9c0,0-0.1,0-0.2,0
			C-675.9,1005.9-675.9,1006-675.8,1006"/>
		<path class="st2" d="M-674,1007.9l2.1,2.7c0,0,0.1,0.1,0.2,0c0,0,0.1-0.1,0-0.2l-2.1-2.7c0,0-0.1-0.1-0.2,0
			S-674.1,1007.9-674,1007.9"/>
		<path class="st2" d="M-680.3,1005.8l4.6,0.3c0.1,0,0.1,0,0.1-0.1c0-0.1,0-0.1-0.1-0.1l-4.6-0.3c-0.1,0-0.1,0-0.1,0.1
			C-680.4,1005.7-680.4,1005.8-680.3,1005.8"/>
		<path class="st2" d="M-681.3,1002.8l1,2.8c0,0.1,0.1,0.1,0.1,0.1c0.1,0,0.1-0.1,0.1-0.1l-1-2.8c0-0.1-0.1-0.1-0.1-0.1
			S-681.3,1002.8-681.3,1002.8"/>
		<line class="st2" x1="-673.8" y1="1008.1" x2="-673.7" y2="1008"/>
		<circle class="st2" cx="-684.7" cy="1000.6" r="0.3"/>
		<circle class="st2" cx="-682.6" cy="995.5" r="0.3"/>
		<circle class="st2" cx="-680.4" cy="999.2" r="0.3"/>
		<circle class="st2" cx="-675.3" cy="1001.7" r="0.3"/>
		<circle class="st2" cx="-669.1" cy="1000.5" r="0.3"/>
		<circle class="st2" cx="-674.6" cy="997.2" r="0.3"/>
		<circle class="st2" cx="-667.8" cy="994.6" r="0.3"/>
		<circle class="st2" cx="-664.9" cy="999.5" r="0.3"/>
		<circle class="st2" cx="-664.9" cy="1003.6" r="0.3"/>
		<circle class="st2" cx="-668.4" cy="1008.4" r="0.3"/>
		<path class="st2" d="M-673.6,1007.8c0,0.2-0.2,0.4-0.4,0.4c-0.1,0-0.2-0.1-0.3-0.3c0-0.2,0.2-0.4,0.4-0.4
			C-673.7,1007.6-673.6,1007.7-673.6,1007.8z"/>
		<circle class="st2" cx="-680.3" cy="1005.6" r="0.3"/>
		<circle class="st2" cx="-685.1" cy="997.3" r="0.3"/>
		<circle class="st2" cx="-682.8" cy="1003.1" r="0.3"/>
		<circle class="st2" cx="-675.1" cy="993" r="0.3"/>
		<circle class="st2" cx="-678.8" cy="993.7" r="0.3"/>
		<circle class="st2" cx="-667.3" cy="1005.9" r="0.3"/>
		<circle class="st2" cx="-670.6" cy="993.7" r="0.3"/>
		<circle class="st2" cx="-675.8" cy="1005.9" r="0.3"/>
	</g>
	<g>
		<polygon class="st1" points="-671,1004.6 -671.7,1008.9 -671.5,1008.8 -670.8,1004.6 		"/>
	</g>
	<circle class="st2" cx="-670.8" cy="1004.5" r="0.3"/>
	<polygon class="st2" points="-672,1010.5 -671.7,1010.5 -671.4,1008.6 -671.7,1008.6 	"/>
</g>
</svg>
