<?xml version="1.0" encoding="utf-8"?>
<!-- Generator: Adobe Illustrator 16.0.0, SVG Export Plug-In . SVG Version: 6.00 Build 0)  -->
<!DOCTYPE svg PUBLIC "-//W3C//DTD SVG 1.1//EN" "http://www.w3.org/Graphics/SVG/1.1/DTD/svg11.dtd">
<svg version="1.1" id="Layer_1" xmlns="http://www.w3.org/2000/svg" xmlns:xlink="http://www.w3.org/1999/xlink" x="0px" y="0px"
	 width="595.279px" height="841.891px" viewBox="0 0 595.279 841.891" enable-background="new 0 0 595.279 841.891"
	 xml:space="preserve">
<g id="Layer_2">
</g>
<g>
	<g>
		<polyline fill="#924ABC" points="110.374,223.714 164.943,313.007 167.421,310.527 112.857,218.755 		"/>
		<polyline fill="#924ABC" points="167.421,315.488 313.763,265.88 311.282,260.919 164.943,310.527 		"/>
		<polyline fill="#924ABC" points="204.626,174.109 162.462,313.007 169.904,313.007 209.587,176.589 		"/>
		<polyline fill="#924ABC" points="207.109,179.07 311.282,265.88 313.763,260.919 209.587,174.109 		"/>
		<polyline fill="#924ABC" points="313.763,265.88 410.495,181.55 408.015,176.589 311.282,260.919 		"/>
		<polyline fill="#924ABC" points="408.015,179.07 445.22,345.251 450.181,345.251 412.976,179.07 		"/>
		<polyline fill="#924ABC" points="445.22,342.773 293.919,372.535 296.4,377.496 447.7,347.732 		"/>
		<polyline fill="#924ABC" points="296.4,375.015 313.763,263.402 308.802,263.402 291.439,375.015 		"/>
		<polyline fill="#924ABC" points="311.282,265.88 440.259,342.773 442.74,337.812 313.763,260.919 		"/>
		<polyline fill="#924ABC" points="445.22,345.251 400.573,444.465 405.534,446.945 450.181,347.732 		"/>
		<polyline fill="#924ABC" points="403.054,446.945 487.386,481.67 489.866,476.709 405.534,441.986 		"/>
		<polyline fill="#924ABC" points="447.7,347.732 554.355,322.927 554.355,317.968 445.22,342.773 		"/>
		<polyline fill="#924ABC" points="63.249,347.732 167.421,315.488 164.943,310.527 60.769,342.773 		"/>
		<polyline fill="#924ABC" points="291.439,375.015 276.558,476.709 281.519,479.191 296.4,375.015 		"/>
		<polyline fill="#924ABC" points="293.919,377.496 403.054,444.465 405.534,439.504 298.88,372.535 		"/>
		<polyline fill="#924ABC" points="164.943,315.488 293.919,377.496 296.4,372.535 167.421,310.527 		"/>
		<polyline fill="#924ABC" points="150.062,404.781 169.904,313.007 162.462,313.007 145.101,402.298 		"/>
		<polyline fill="#924ABC" points="445.22,347.732 551.874,422.143 554.355,417.181 447.7,342.773 		"/>
		<polyline fill="#924ABC" points="283.997,481.67 405.534,446.945 403.054,441.986 283.997,474.23 		"/>
		<polyline fill="#924ABC" points="169.904,474.23 296.4,377.496 293.919,372.535 167.421,471.748 		"/>
		<polyline fill="#924ABC" points="293.919,156.748 308.802,263.402 313.763,260.919 301.361,156.748 		"/>
		<polyline fill="#924ABC" points="502.267,255.96 445.22,345.251 450.181,347.732 507.228,258.441 		"/>
		<path fill="#924ABC" d="M110.374,412.22l37.205-7.439c2.48,0,2.48-2.48,2.48-2.48c0-2.479-2.48-2.479-2.48-2.479l-37.205,7.439
			c-2.479,0-2.479,2.48-2.479,2.48C107.896,409.74,107.896,412.22,110.374,412.22"/>
		<path fill="#924ABC" d="M60.769,387.417l47.127,24.803c2.479,0,2.479,0,2.479,0c0-2.479,0-2.479,0-2.479l-47.127-24.803
			c-2.479,0-2.479,0-2.479,0C58.288,384.937,58.288,387.417,60.769,387.417"/>
		<path fill="#924ABC" d="M58.288,347.732v37.205c0,2.479,2.48,2.479,2.48,2.479c2.479,0,2.479-2.479,2.479-2.479v-37.205
			c0-2.48-2.479-2.48-2.479-2.48C58.288,345.251,58.288,347.732,58.288,347.732"/>
		<path fill="#924ABC" d="M45.886,263.402l-12.4,49.605c0,2.48,0,2.48,2.479,2.48c2.48,0,2.48,0,2.48-2.48l12.402-49.605
			c0-2.48,0-2.48-2.48-2.48S48.366,263.402,45.886,263.402"/>
		<path fill="#924ABC" d="M33.486,315.488l24.803,34.725c0,0,2.48,2.48,2.48,0c0,0,2.479-2.479,0-2.479l-24.805-34.727
			c0,0-2.479-2.479-2.479,0V315.488"/>
		<path fill="#924ABC" d="M53.327,265.88l62.008-44.645c0,0,2.48-2.48,0-2.48c0,0-2.479-2.48-2.479,0l-62.01,44.646
			c0,0-2.479,2.479,0,2.479C48.366,268.363,50.847,268.363,53.327,265.88"/>
		<path fill="#924ABC" d="M115.335,223.714l32.244-52.086v-2.48h-2.479l-32.244,52.088v2.479
			C112.857,223.714,112.857,223.714,115.335,223.714"/>
		<path fill="#924ABC" d="M145.101,171.628l62.008,4.961c2.479,0,2.479,0,2.479-2.48c0-2.479,0-2.479-2.479-2.479l-62.008-4.961
			c-2.48,0-2.48,0-2.48,2.479C142.618,171.628,145.101,171.628,145.101,171.628"/>
		<path fill="#924ABC" d="M207.109,179.07l42.166-34.727c0,0,0-2.479,0-4.961c0,0-2.48,0-4.961,0l-42.166,34.727
			c0,0,0,2.479,0,4.961C204.626,179.07,207.109,179.07,207.109,179.07"/>
		<path fill="#924ABC" d="M246.792,141.865l49.607,19.842c2.48,0,2.48,0,2.48-2.48c0-2.479,0-2.479-2.48-2.479l-49.607-19.844
			c-2.479,0-2.479,0-2.479,2.48S244.314,141.865,246.792,141.865"/>
		<path fill="#924ABC" d="M298.88,161.707l76.891-19.842c2.48,0,2.48-2.48,2.48-2.48l-2.48-2.48l-76.891,19.844
			c-2.479,0-2.479,2.479-2.479,2.479S296.4,161.707,298.88,161.707"/>
		<path fill="#924ABC" d="M370.81,141.865l37.205,37.205c0,0,2.48,0,4.961,0s0-2.48,0-4.961l-37.205-37.205c0,0-2.48,0-4.961,0
			S370.81,141.865,370.81,141.865"/>
		<path fill="#924ABC" d="M410.495,179.07l69.449,22.322c2.48,0,2.48,0,2.48-2.479c0-2.48,0-2.48-2.48-2.48l-69.449-22.324
			c-2.479,0-2.479,0-2.479,2.48C408.015,179.07,408.015,179.07,410.495,179.07"/>
		<path fill="#924ABC" d="M479.945,201.392l22.324,57.049c0,2.479,2.48,2.479,2.48,2.479c2.479,0,2.479-2.479,2.479-2.479
			l-22.322-57.049c0-2.479-2.48-2.479-2.48-2.479S477.464,198.912,479.945,201.392"/>
		<path fill="#924ABC" d="M502.267,258.441l49.607,62.008c0,0,2.479,2.479,4.961,0c0,0,2.479-2.48,0-4.961l-49.607-62.008
			c0,0-2.479-2.48-4.961,0C502.267,255.96,499.788,258.441,502.267,258.441"/>
		<path fill="#924ABC" d="M549.394,320.449l7.441,49.605c0,2.48,2.479,2.48,2.479,2.48c2.48,0,2.48-2.48,2.48-2.48l-7.441-49.605
			c0-2.48-2.479-2.48-2.479-2.48S549.394,317.968,549.394,320.449"/>
		<path fill="#924ABC" d="M556.835,367.576l-7.441,52.086c0,2.481,0,2.481,2.48,2.481c2.479,0,2.479,0,2.479-2.481l7.441-52.086
			c0-2.48,0-2.48-2.48-2.48C559.316,365.093,556.835,367.576,556.835,367.576"/>
		<path fill="#924ABC" d="M492.347,481.67l62.008-57.047c0,0,0-2.48,0-4.961c0,0-2.479,0-4.961,0l-62.008,57.047c0,0,0,2.48,0,4.961
			C489.866,481.67,492.347,481.67,492.347,481.67"/>
		<path fill="#924ABC" d="M489.866,479.191l-24.805,62.008c0,2.48,0,2.48,2.48,2.48c2.479,0,2.479,0,2.479-2.48l24.805-62.008
			c0-2.48,0-2.48-2.48-2.48C489.866,476.709,489.866,476.709,489.866,479.191"/>
		<path fill="#924ABC" d="M465.062,538.719l-79.371,7.439c-2.479,0-2.479,2.48-2.479,2.48c0,2.48,2.479,2.48,2.479,2.48
			l76.891-7.441c2.479,0,2.479-2.48,2.479-2.48C467.544,538.719,467.544,538.719,465.062,538.719"/>
		<path fill="#924ABC" d="M281.519,481.67l47.127,47.127c0,0,2.479,0,4.961,0c0,0,0-2.479,0-4.961l-47.127-47.127
			c0,0-2.48,0-4.961,0C279.036,479.191,279.036,481.67,281.519,481.67"/>
		<path fill="#924ABC" d="M326.163,528.797l52.088,66.971c0,0,2.479,2.479,4.961,0c0,0,2.479-2.48,0-4.961l-52.088-66.971
			c0,0-2.479-2.479-4.961,0C323.683,526.316,323.685,528.797,326.163,528.797"/>
		<path fill="#924ABC" d="M169.904,476.709l114.094,7.441c2.48,0,2.48,0,2.48-2.48c0-2.479,0-2.479-2.48-2.479l-114.094-7.441
			c-2.48,0-2.48,0-2.48,2.48C167.421,474.23,167.421,476.709,169.904,476.709"/>
		<path fill="#924ABC" d="M145.101,402.298l24.803,69.45c0,2.48,2.479,2.48,2.479,2.48c2.48,0,2.48-2.48,2.48-2.48l-24.803-69.45
			c0-2.479-2.48-2.479-2.48-2.479L145.101,402.298"/>
		<line fill="#924ABC" x1="331.124" y1="533.758" x2="333.605" y2="531.277"/>
		<circle fill="#924ABC" cx="60.769" cy="347.731" r="7.44"/>
		<circle fill="#924ABC" cx="112.857" cy="221.235" r="7.44"/>
		<circle fill="#924ABC" cx="167.421" cy="313.008" r="7.44"/>
		<circle fill="#924ABC" cx="293.919" cy="375.016" r="7.44"/>
		<circle fill="#924ABC" cx="447.7" cy="345.252" r="7.44"/>
		<circle fill="#924ABC" cx="311.282" cy="263.401" r="7.44"/>
		<circle fill="#924ABC" cx="479.945" cy="198.912" r="7.441"/>
		<circle fill="#924ABC" cx="551.874" cy="320.448" r="7.44"/>
		<circle fill="#924ABC" cx="551.874" cy="422.141" r="7.441"/>
		<circle fill="#924ABC" cx="465.062" cy="541.199" r="7.441"/>
		<path fill="#924ABC" d="M336.085,526.316c0,4.961-4.961,9.922-9.922,9.922c-2.479,0-4.961-2.48-7.439-7.441
			c0-4.961,4.961-9.922,9.922-9.922C333.605,521.355,336.085,523.836,336.085,526.316z"/>
		<circle fill="#924ABC" cx="169.904" cy="471.749" r="7.44"/>
		<circle fill="#924ABC" cx="50.847" cy="265.881" r="7.44"/>
		<circle fill="#924ABC" cx="107.896" cy="409.74" r="7.441"/>
		<circle fill="#924ABC" cx="298.88" cy="159.227" r="7.44"/>
		<circle fill="#924ABC" cx="207.109" cy="176.589" r="7.441"/>
		<circle fill="#924ABC" cx="492.347" cy="479.19" r="7.44"/>
		<circle fill="#924ABC" cx="410.495" cy="176.589" r="7.441"/>
		<circle fill="#924ABC" cx="281.519" cy="479.19" r="7.44"/>
	</g>
	<g>
		<polygon fill="#924ABC" points="400.573,446.945 383.212,553.602 388.173,551.119 405.534,446.945 		"/>
	</g>
	<circle fill="#924ABC" cx="405.534" cy="444.466" r="7.44"/>
	<polygon fill="#924ABC" points="375.771,593.285 383.212,593.285 390.652,546.158 383.212,546.158 	"/>
</g>
</svg>
