<?xml version="1.0" encoding="utf-8"?>
<!-- Generator: Adobe Illustrator 19.1.0, SVG Export Plug-In . SVG Version: 6.00 Build 0)  -->
<svg version="1.1" id="Layer_1" xmlns="http://www.w3.org/2000/svg" xmlns:xlink="http://www.w3.org/1999/xlink" x="0px" y="0px"
	 viewBox="-624 926 150 150" style="enable-background:new -624 926 150 150;" xml:space="preserve">
<style type="text/css">
	.st0{fill:#AF61D5;}
	.st1{fill:#D261C1;}
	.st2{fill:#FF61AD;}
	.st3{fill:#312883;}
	.st4{fill:#161144;}
	.st5{fill:#924ABC;}
</style>
<g>
	<path class="st0" d="M-482.5,1060l-15.6,1.4c-1.7,0.2-3.1-1.5-3.1-3.5v-34.3c0-2.1,1.4-3.7,3.1-3.5l15.6,1.4
		c1.5,0.1,2.7,1.7,2.7,3.5v31.4C-479.9,1058.3-481,1059.8-482.5,1060z"/>
	<path class="st1" d="M-482.5,1020.6l-15.6,1.4c-1.7,0.2-3.1-1.5-3.1-3.5v-34.3c0-2.1,1.4-3.7,3.1-3.5l15.6,1.4
		c1.5,0.1,2.7,1.7,2.7,3.5v31.4C-479.9,1018.9-481,1020.5-482.5,1020.6z"/>
	<path class="st2" d="M-482.5,980.6l-15.6,1.4c-1.7,0.2-3.1-1.5-3.1-3.5v-34.3c0-2.1,1.4-3.7,3.1-3.5l15.6,1.4
		c1.5,0.1,2.7,1.7,2.7,3.5v31.4C-479.9,979-481,980.5-482.5,980.6z"/>
	<path class="st3" d="M-491.4,1076h-121.6c-1.3,0-2.3-1-2.3-2.3V928.3c0-1.3,1-2.3,2.3-2.3h121.6c1.3,0,2.3,1,2.3,2.3v145.3
		C-489,1075-490.1,1076-491.4,1076z"/>
	<path class="st4" d="M-609.8,950.2h-8.5c-0.8,0-1.5-0.7-1.5-1.5v-6.4c0-0.8,0.7-1.5,1.5-1.5h8.5c0.8,0,1.5,0.7,1.5,1.5v6.4
		C-608.3,949.5-609,950.2-609.8,950.2z"/>
	<path class="st4" d="M-609.8,987.2h-8.5c-0.8,0-1.5-0.7-1.5-1.5v-6.4c0-0.8,0.7-1.5,1.5-1.5h8.5c0.8,0,1.5,0.7,1.5,1.5v6.4
		C-608.3,986.6-609,987.2-609.8,987.2z"/>
	<path class="st4" d="M-609.8,1024.3h-8.5c-0.8,0-1.5-0.7-1.5-1.5v-6.4c0-0.8,0.7-1.5,1.5-1.5h8.5c0.8,0,1.5,0.7,1.5,1.5v6.4
		C-608.3,1023.7-609,1024.3-609.8,1024.3z"/>
	<path class="st4" d="M-609.8,1061.4h-8.5c-0.8,0-1.5-0.7-1.5-1.5v-6.4c0-0.8,0.7-1.5,1.5-1.5h8.5c0.8,0,1.5,0.7,1.5,1.5v6.4
		C-608.3,1060.8-609,1061.4-609.8,1061.4z"/>
	<polyline class="st5" points="-585.8,973.7 -576.2,989.7 -575.4,989.3 -585,973.2 	"/>
	<polyline class="st5" points="-575.7,990 -550,981.4 -550.3,980.5 -576,989.1 	"/>
	<polyline class="st5" points="-568.9,965.4 -576.3,989.4 -575.4,989.6 -568.1,965.7 	"/>
	<polyline class="st5" points="-568.8,965.9 -550.5,981.3 -549.9,980.6 -568.2,965.2 	"/>
	<polyline class="st5" points="-549.9,981.3 -532.8,966.4 -533.4,965.7 -550.5,980.6 	"/>
	<polyline class="st5" points="-533.5,966.1 -527,995.5 -526.1,995.3 -532.6,965.9 	"/>
	<polyline class="st5" points="-526.7,994.9 -553.3,1000.1 -553.2,1001 -526.5,995.8 	"/>
	<polyline class="st5" points="-552.8,1000.4 -549.7,981 -550.7,980.9 -553.7,1000.2 	"/>
	<polyline class="st5" points="-550.4,981.3 -527.7,994.8 -527.2,994 -550,980.5 	"/>
	<polyline class="st5" points="-527,995.2 -534.5,1012.5 -533.6,1012.9 -526.2,995.5 	"/>
	<polyline class="st5" points="-534.2,1013.2 -519.3,1019.2 -518.9,1018.3 -533.9,1012.3 	"/>
	<polyline class="st5" points="-526.5,995.8 -507.7,991.3 -507.9,990.4 -526.7,994.9 	"/>
	<polyline class="st5" points="-593.9,995.8 -575.7,990 -576,989.1 -594.2,994.9 	"/>
	<polyline class="st5" points="-553.7,1000.3 -556.4,1018.5 -555.4,1018.6 -552.8,1000.4 	"/>
	<polyline class="st5" points="-553.2,1000.9 -534.1,1012.7 -533.7,1011.9 -552.8,1000.1 	"/>
	<polyline class="st5" points="-576,989.9 -553.4,1000.7 -553,999.9 -575.6,989.1 	"/>
	<polyline class="st5" points="-578.7,1005.6 -575.4,989.6 -576.3,989.4 -579.7,1005.4 	"/>
	<polyline class="st5" points="-526.8,995.7 -508,1008.6 -507.5,1007.8 -526.3,995 	"/>
	<polyline class="st5" points="-555.1,1019 -533.9,1013.2 -534.2,1012.3 -555.3,1018.1 	"/>
	<polyline class="st5" points="-575,1018 -553,1000.7 -553.5,1000 -575.6,1017.3 	"/>
	<polyline class="st5" points="-553.2,962.4 -550.7,980.7 -549.8,980.5 -552.3,962.2 	"/>
	<polyline class="st5" points="-516.9,979.6 -527,995.1 -526.2,995.6 -516.2,980.1 	"/>
	<path class="st2" d="M-585.7,1006.9l6.5-1.1c0.3,0,0.4-0.3,0.4-0.5c0-0.3-0.3-0.4-0.5-0.4l-6.5,1.1c-0.3,0-0.4,0.3-0.4,0.5
		C-586.2,1006.7-585.9,1006.9-585.7,1006.9"/>
	<path class="st2" d="M-594.4,1002.6l8.3,4.5c0.2,0.1,0.5,0,0.6-0.2c0.1-0.2,0-0.5-0.2-0.6l-8.3-4.5c-0.2-0.1-0.5,0-0.6,0.2
		C-594.7,1002.2-594.6,1002.5-594.4,1002.6"/>
	<path class="st2" d="M-594.8,995.8l0.1,6.4c0,0.3,0.2,0.5,0.5,0.5c0.3,0,0.5-0.2,0.5-0.5l-0.1-6.4c0-0.3-0.2-0.5-0.5-0.5
		S-594.8,995.6-594.8,995.8"/>
	<path class="st2" d="M-596.7,981l-2.3,8.6c-0.1,0.2,0.1,0.5,0.3,0.6c0.2,0.1,0.5-0.1,0.6-0.3l2.3-8.6c0.1-0.2-0.1-0.5-0.3-0.6
		C-596.4,980.6-596.7,980.8-596.7,981"/>
	<path class="st2" d="M-599,990l4.3,6.1c0.1,0.2,0.4,0.3,0.6,0.1c0.2-0.1,0.3-0.4,0.1-0.6l-4.3-6.1c-0.1-0.2-0.4-0.3-0.6-0.1
		S-599.1,989.8-599,990"/>
	<path class="st2" d="M-595.8,981.5l10.9-7.7c0.2-0.1,0.3-0.4,0.1-0.6c-0.1-0.2-0.4-0.3-0.6-0.1l-10.9,7.7c-0.2,0.1-0.3,0.4-0.1,0.6
		C-596.3,981.6-596.1,981.7-595.8,981.5"/>
	<path class="st2" d="M-584.9,973.7l5.9-9.1c0.1-0.2,0.1-0.5-0.1-0.6c-0.2-0.1-0.5-0.1-0.6,0.1l-5.9,9.1c-0.1,0.2-0.1,0.5,0.1,0.6
		C-585.3,974-585,973.9-584.9,973.7"/>
	<path class="st2" d="M-579.4,964.9l10.7,1.1c0.3,0,0.5-0.2,0.5-0.4s-0.2-0.5-0.4-0.5l-10.7-1.1c-0.3,0-0.5,0.2-0.5,0.4
		C-579.9,964.6-579.7,964.8-579.4,964.9"/>
	<path class="st2" d="M-568.5,965.9l7.2-6.2c0.2-0.2,0.2-0.5,0-0.7c-0.2-0.2-0.5-0.2-0.7,0l-7.2,6.2c-0.2,0.2-0.2,0.5,0,0.7
		C-569,966-568.7,966.1-568.5,965.9"/>
	<path class="st2" d="M-561.7,959.7l8.9,3.3c0.2,0.1,0.5,0,0.6-0.3c0.1-0.2,0-0.5-0.3-0.6l-8.9-3.3c-0.2-0.1-0.5,0-0.6,0.3
		C-562.1,959.4-562,959.6-561.7,959.7"/>
	<path class="st2" d="M-552.6,963l13.3-3.3c0.2-0.1,0.4-0.3,0.3-0.6c-0.1-0.2-0.3-0.4-0.6-0.3l-13.3,3.3c-0.2,0.1-0.4,0.3-0.3,0.6
		S-552.8,963.1-552.6,963"/>
	<path class="st2" d="M-539.7,959.6l6.5,6.5c0.2,0.2,0.5,0.2,0.7,0c0.2-0.2,0.2-0.5,0-0.7l-6.5-6.5c-0.2-0.2-0.5-0.2-0.7,0
		C-539.9,959.1-539.9,959.4-539.7,959.6"/>
	<path class="st2" d="M-533,966.3l12.3,3.8c0.2,0.1,0.5-0.1,0.6-0.3c0.1-0.2-0.1-0.5-0.3-0.6l-12.3-3.8c-0.2-0.1-0.5,0.1-0.6,0.3
		S-533.2,966.2-533,966.3"/>
	<path class="st2" d="M-521,969.8l4,10.2c0.1,0.2,0.4,0.4,0.6,0.3c0.2-0.1,0.4-0.4,0.3-0.6l-4-10.2c-0.1-0.2-0.4-0.4-0.6-0.3
		C-520.9,969.3-521.1,969.6-521,969.8"/>
	<path class="st2" d="M-516.9,980.1l8.8,10.9c0.2,0.2,0.5,0.2,0.7,0.1c0.2-0.2,0.2-0.5,0.1-0.7l-8.8-10.9c-0.2-0.2-0.5-0.2-0.7-0.1
		C-517,979.6-517.1,979.9-516.9,980.1"/>
	<path class="st2" d="M-508.4,990.8l1.3,8.6c0,0.3,0.3,0.4,0.5,0.4c0.3,0,0.4-0.3,0.4-0.5l-1.3-8.6c0-0.3-0.3-0.4-0.5-0.4
		C-508.3,990.3-508.4,990.6-508.4,990.8"/>
	<path class="st2" d="M-507.1,999.3l-1.3,9.3c0,0.3,0.1,0.5,0.4,0.5c0.3,0,0.5-0.1,0.5-0.4l1.3-9.3c0-0.3-0.1-0.5-0.4-0.5
		S-507.1,999-507.1,999.3"/>
	<path class="st2" d="M-518.5,1019.2l10.9-10.2c0.2-0.2,0.2-0.5,0-0.7c-0.2-0.2-0.5-0.2-0.7,0l-10.9,10.2c-0.2,0.2-0.2,0.5,0,0.7
		C-519,1019.3-518.7,1019.4-518.5,1019.2"/>
	<path class="st2" d="M-519.2,1018.7l-4.4,10.9c-0.1,0.2,0,0.5,0.3,0.6c0.2,0.1,0.5,0,0.6-0.3l4.4-10.9c0.1-0.2,0-0.5-0.3-0.6
		S-519.1,1018.4-519.2,1018.7"/>
	<path class="st2" d="M-523.3,1029.2l-13.8,1.4c-0.3,0-0.3,0.3-0.3,0.5c0,0.3,0.3,0.4,0.5,0.4l13.7-1.4c0.3,0,0.4-0.3,0.4-0.5
		C-522.8,1029.4-523,1029.2-523.3,1029.2"/>
	<path class="st2" d="M-555.8,1019.2l8.1,8.4c0.2,0.2,0.5,0.2,0.7,0c0.2-0.2,0.2-0.5,0-0.7l-8.1-8.4c-0.2-0.2-0.5-0.2-0.7,0
		C-556,1018.7-556,1019-555.8,1019.2"/>
	<path class="st2" d="M-547.9,1027.5l9.1,11.6c0.2,0.2,0.5,0.2,0.7,0.1c0.2-0.2,0.2-0.5,0.1-0.7l-9.1-11.6c-0.2-0.2-0.5-0.2-0.7-0.1
		C-548,1027-548,1027.3-547.9,1027.5"/>
	<path class="st2" d="M-575.4,1018.1l19.9,1.2c0.3,0,0.5-0.2,0.5-0.4c0-0.3-0.2-0.5-0.4-0.5l-19.9-1.2c-0.3,0-0.5,0.2-0.5,0.4
		C-575.8,1017.9-575.6,1018.1-575.4,1018.1"/>
	<path class="st2" d="M-579.6,1005.5l4.2,12.4c0.1,0.2,0.3,0.4,0.6,0.3c0.2-0.1,0.4-0.3,0.3-0.6l-4.2-12.4c-0.1-0.2-0.3-0.4-0.6-0.3
		C-579.6,1005-579.7,1005.2-579.6,1005.5"/>
	<line class="st2" x1="-546.9" y1="1028.5" x2="-546.4" y2="1028"/>
	<circle class="st2" cx="-594.2" cy="995.8" r="1.4"/>
	<circle class="st2" cx="-585.3" cy="973.5" r="1.4"/>
	<circle class="st2" cx="-575.8" cy="989.4" r="1.4"/>
	<circle class="st2" cx="-553.2" cy="1000.3" r="1.4"/>
	<circle class="st2" cx="-526.5" cy="995.4" r="1.4"/>
	<circle class="st2" cx="-550.2" cy="980.9" r="1.4"/>
	<circle class="st2" cx="-520.7" cy="969.6" r="1.4"/>
	<circle class="st2" cx="-507.9" cy="990.9" r="1.4"/>
	<circle class="st2" cx="-507.9" cy="1008.6" r="1.4"/>
	<circle class="st2" cx="-523.3" cy="1029.7" r="1.4"/>
	<path class="st2" d="M-545.9,1027c0.2,1-0.7,1.9-1.7,1.7c-0.6-0.1-1-0.6-1.1-1.1c-0.2-1,0.7-1.9,1.7-1.7
		C-546.5,1025.9-546,1026.4-545.9,1027z"/>
	<circle class="st2" cx="-575" cy="1017.6" r="1.4"/>
	<circle class="st2" cx="-596.1" cy="981.1" r="1.4"/>
	<circle class="st2" cx="-585.9" cy="1006.7" r="1.4"/>
	<circle class="st2" cx="-552.7" cy="962.6" r="1.4"/>
	<circle class="st2" cx="-568.7" cy="965.5" r="1.4"/>
	<circle class="st2" cx="-518.8" cy="1018.8" r="1.4"/>
	<circle class="st2" cx="-532.9" cy="965.8" r="1.4"/>
	<circle class="st2" cx="-555.5" cy="1018.8" r="1.4"/>
	<polygon class="st5" points="-534.7,1013.1 -537.7,1031.6 -536.7,1031.5 -533.7,1013.3 	"/>
	<circle class="st2" cx="-533.9" cy="1012.7" r="1.4"/>
	<polygon class="st2" points="-538.9,1038.7 -538,1038.9 -536.6,1030.6 -537.5,1030.7 	"/>
</g>
</svg>
